<?xml version="1.0" standalone="no"?>
<!DOCTYPE svg PUBLIC "-//W3C//DTD SVG 20010904//EN"
 "http://www.w3.org/TR/2001/REC-SVG-20010904/DTD/svg10.dtd">
<svg version="1.0" xmlns="http://www.w3.org/2000/svg"
 width="460.000000pt" height="460.000000pt" viewBox="0 0 460.000000 460.000000"
 preserveAspectRatio="xMidYMid meet">
<metadata>
Created by potrace 1.11, written by Peter Selinger 2001-2013
</metadata>
<g transform="translate(0.000000,460.000000) scale(0.100000,-0.100000)"
fill="#000000" stroke="none">
<path d="M582 4554 c-48 -64 -116 -164 -136 -199 -17 -30 -17 -30 1 -5 71 96
173 243 171 245 -2 2 -18 -17 -36 -41z"/>
<path d="M650 4591 c0 -10 90 -35 97 -27 3 3 -11 8 -31 11 -20 4 -36 11 -36
16 0 5 -7 9 -15 9 -8 0 -15 -4 -15 -9z"/>
<path d="M2240 4590 c0 -5 -7 -10 -17 -10 -9 0 -14 -2 -11 -5 8 -9 68 7 62 16
-7 12 -34 11 -34 -1z"/>
<path d="M2326 4591 c5 -5 20 -11 34 -14 14 -2 19 -2 13 0 -7 3 -13 9 -13 14
0 5 -10 9 -22 9 -14 0 -18 -4 -12 -9z"/>
<path d="M3920 4591 c0 -5 -16 -12 -36 -16 -20 -3 -34 -8 -31 -11 7 -8 97 17
97 27 0 5 -7 9 -15 9 -8 0 -15 -4 -15 -9z"/>
<path d="M3980 4596 c0 -8 101 -146 107 -146 3 0 -3 12 -13 28 -25 38 -94 125
-94 118z"/>
<path d="M2150 4560 c-20 -6 -21 -8 -5 -8 11 0 29 3 40 8 25 11 -1 11 -35 0z"/>
<path d="M2415 4560 c11 -5 29 -8 40 -8 16 0 15 2 -5 8 -34 11 -60 11 -35 0z"/>
<path d="M768 4553 c7 -3 16 -2 19 1 4 3 -2 6 -13 5 -11 0 -14 -3 -6 -6z"/>
<path d="M3818 4553 c7 -3 16 -2 19 1 4 3 -2 6 -13 5 -11 0 -14 -3 -6 -6z"/>
<path d="M820 4540 c14 -4 34 -8 45 -8 16 0 15 2 -5 8 -14 4 -34 8 -45 8 -16
0 -15 -2 5 -8z"/>
<path d="M2060 4540 c-20 -6 -21 -8 -5 -8 11 0 31 4 45 8 20 6 21 8 5 8 -11 0
-31 -4 -45 -8z"/>
<path d="M2525 4534 c28 -7 59 -13 70 -13 11 0 -5 7 -35 14 -72 18 -100 17
-35 -1z"/>
<path d="M3740 4540 c-20 -6 -21 -8 -5 -8 11 0 31 4 45 8 20 6 21 8 5 8 -11 0
-31 -4 -45 -8z"/>
<path d="M898 4523 c6 -2 18 -2 25 0 6 3 1 5 -13 5 -14 0 -19 -2 -12 -5z"/>
<path d="M1998 4523 c6 -2 18 -2 25 0 6 3 1 5 -13 5 -14 0 -19 -2 -12 -5z"/>
<path d="M3678 4523 c6 -2 18 -2 25 0 6 3 1 5 -13 5 -14 0 -19 -2 -12 -5z"/>
<path d="M1005 4504 c39 -7 84 -13 100 -12 17 0 -4 6 -45 13 -41 8 -86 13
-100 13 -14 0 7 -6 45 -14z"/>
<path d="M1855 4505 c-38 -7 -56 -13 -40 -13 17 -1 62 5 100 12 39 8 57 14 40
14 -16 -1 -61 -6 -100 -13z"/>
<path d="M2685 4504 c39 -7 84 -13 100 -12 17 0 -4 6 -45 13 -41 8 -86 13
-100 13 -14 0 7 -6 45 -14z"/>
<path d="M3535 4505 c-38 -7 -56 -13 -40 -13 17 -1 62 5 100 12 39 8 57 14 40
14 -16 -1 -61 -6 -100 -13z"/>
<path d="M2160 4464 c-229 -59 -364 -75 -649 -81 -288 -6 -432 7 -676 59 -77
16 -152 32 -166 35 -23 4 -32 -2 -66 -49 -64 -87 -148 -228 -211 -354 -56
-113 -153 -348 -167 -406 l-7 -28 2081 0 c1387 0 2081 3 2081 10 0 27 -90 252
-154 385 -72 148 -180 334 -239 408 -24 32 -35 38 -56 34 -14 -3 -80 -17 -146
-32 -207 -46 -387 -65 -625 -65 -283 0 -520 28 -740 87 -52 14 -102 27 -110
28 -8 2 -76 -12 -150 -31z m-1450 -459 l0 -155 -35 0 -35 0 0 148 c0 82 3 152
7 155 3 4 19 7 35 7 l28 0 0 -155z m322 28 l3 -128 98 -3 c96 -3 97 -3 97 -27
l0 -25 -135 0 -135 0 0 155 0 155 35 0 34 0 3 -127z m476 -5 l3 -128 94 0 c95
0 95 0 95 -25 l0 -25 -135 0 -135 0 0 148 c0 82 3 152 7 156 4 4 21 6 38 4
l30 -3 3 -127z m472 -23 l0 -155 -35 0 -35 0 0 155 0 155 35 0 35 0 0 -155z
m315 147 c6 -4 46 -47 90 -96 l80 -90 5 95 5 94 35 0 35 0 3 -152 3 -153 -35
0 c-30 0 -43 10 -122 99 l-89 100 -3 -100 -3 -100 -37 3 -37 3 -3 140 c-1 76
0 145 2 152 6 14 54 18 71 5z m755 -14 c103 -53 112 -191 17 -262 -21 -15 -47
-22 -102 -24 -93 -5 -144 19 -175 83 -33 67 -21 134 32 183 51 47 156 56 228
20z m388 -135 l3 -153 -41 0 -40 0 0 148 c0 82 3 152 7 156 4 4 21 6 38 4 l30
-3 3 -152z m469 131 c15 -11 28 -25 30 -31 7 -19 -51 -25 -83 -8 -34 18 -58
19 -85 5 -38 -21 -21 -38 65 -65 112 -33 142 -68 115 -129 -16 -35 -67 -56
-133 -56 -64 0 -112 17 -141 49 -16 19 -17 24 -5 31 23 15 51 12 71 -6 24 -22
104 -31 124 -14 8 7 15 21 15 30 0 18 -24 30 -129 62 -89 28 -105 99 -31 140
47 26 147 21 187 -8z"/>
<path d="M2904 4094 c-91 -45 -60 -194 41 -194 51 0 91 24 104 61 15 42 14 55
-5 94 -24 51 -83 68 -140 39z"/>
<path d="M1173 4483 c15 -2 37 -2 50 0 12 2 0 4 -28 4 -27 0 -38 -2 -22 -4z"/>
<path d="M1708 4483 c12 -2 32 -2 45 0 12 2 2 4 -23 4 -25 0 -35 -2 -22 -4z"/>
<path d="M2848 4483 c12 -2 32 -2 45 0 12 2 2 4 -23 4 -25 0 -35 -2 -22 -4z"/>
<path d="M3383 4483 c15 -2 37 -2 50 0 12 2 0 4 -28 4 -27 0 -38 -2 -22 -4z"/>
<path d="M1363 4473 c53 -2 141 -2 195 0 53 1 9 3 -98 3 -107 0 -151 -2 -97
-3z"/>
<path d="M3043 4473 c53 -2 141 -2 195 0 53 1 9 3 -98 3 -107 0 -151 -2 -97
-3z"/>
<path d="M4155 4338 c78 -125 95 -149 59 -83 -34 62 -112 185 -118 185 -2 0
24 -46 59 -102z"/>
<path d="M410 4300 c-6 -11 -8 -20 -6 -20 3 0 10 9 16 20 6 11 8 20 6 20 -3 0
-10 -9 -16 -20z"/>
<path d="M371 4234 c-12 -20 -20 -38 -18 -40 2 -2 14 14 26 36 28 50 21 53 -8
4z"/>
<path d="M294 4089 c-25 -50 -44 -93 -42 -95 2 -2 25 39 51 91 26 52 45 95 42
95 -3 0 -25 -41 -51 -91z"/>
<path d="M4313 4051 c34 -72 63 -128 65 -126 5 4 -115 255 -121 255 -3 0 22
-58 56 -129z"/>
<path d="M226 3940 c-22 -56 -19 -65 5 -11 11 24 18 46 15 48 -2 2 -11 -14
-20 -37z"/>
<path d="M4380 3905 c0 -5 5 -17 10 -25 5 -8 10 -10 10 -5 0 6 -5 17 -10 25
-5 8 -10 11 -10 5z"/>
<path d="M181 3829 c-6 -18 -9 -34 -7 -36 2 -2 9 10 15 28 6 18 9 34 7 36 -2
2 -9 -10 -15 -28z"/>
<path d="M4406 3840 c3 -14 11 -32 16 -40 6 -10 7 -7 2 10 -3 14 -11 32 -16
40 -6 10 -7 7 -2 -10z"/>
<path d="M121 3649 c-7 -22 -11 -43 -8 -45 2 -2 9 14 16 37 7 22 11 43 8 45
-2 2 -9 -14 -16 -37z"/>
<path d="M4462 3680 c0 -8 6 -31 13 -50 7 -19 13 -28 13 -20 0 8 -6 31 -13 50
-7 19 -13 28 -13 20z"/>
<path d="M90 3540 c-7 -28 -10 -53 -8 -55 3 -3 10 18 16 47 7 28 11 53 8 55
-2 2 -9 -19 -16 -47z"/>
<path d="M4496 3560 c4 -19 11 -44 15 -55 6 -14 7 -9 3 15 -4 19 -11 44 -15
55 -6 14 -7 9 -3 -15z"/>
<path d="M177 3478 c-52 -211 -72 -392 -71 -658 0 -249 12 -363 60 -591 74
-353 241 -729 458 -1029 376 -522 936 -909 1542 -1066 130 -34 133 -34 195
-19 644 149 1233 548 1627 1102 347 487 531 1103 509 1698 -8 205 -36 415 -77
578 l-12 47 -2108 0 -2108 0 -15 -62z m1886 -112 c21 -8 53 -24 71 -37 37 -25
81 -83 72 -97 -3 -5 -23 -17 -45 -27 l-40 -18 -27 32 c-39 47 -80 64 -149 64
-68 0 -105 -15 -152 -65 -56 -58 -77 -119 -81 -241 -5 -131 18 -221 76 -288
44 -51 85 -69 158 -69 68 0 115 21 153 67 l29 35 46 -17 c25 -10 46 -21 46
-25 0 -18 -64 -92 -97 -114 -61 -39 -107 -49 -202 -44 -62 3 -98 10 -128 26
-125 65 -193 207 -193 402 0 105 15 175 55 256 31 63 109 137 168 157 53 19
190 21 240 3z m707 -7 c25 -11 56 -30 68 -42 23 -21 57 -76 50 -82 -2 -1 -23
-9 -48 -17 l-45 -15 -30 33 c-58 61 -177 68 -238 15 -23 -21 -30 -36 -31 -68
-1 -67 41 -102 190 -158 137 -52 213 -118 234 -205 31 -128 -30 -243 -152
-286 -46 -16 -166 -19 -218 -4 -59 16 -128 67 -160 117 -17 26 -30 50 -30 53
0 3 22 13 49 22 l50 16 25 -38 c33 -50 96 -80 169 -80 100 0 151 35 164 113
14 88 -37 142 -193 202 -121 47 -182 88 -213 144 -62 113 -1 253 127 291 55
17 184 11 232 -11z m-540 -1009 c82 -24 146 -65 194 -123 120 -147 111 -392
-21 -532 -52 -55 -138 -119 -277 -205 -166 -102 -274 -197 -311 -275 -48 -103
-78 -95 340 -95 l365 0 0 -85 0 -85 -471 0 -472 0 6 74 c9 98 48 219 95 292
77 118 158 186 427 363 128 84 182 140 210 221 39 111 -10 226 -119 282 -57
30 -174 36 -250 14 -69 -20 -140 -81 -168 -143 -10 -24 -21 -43 -23 -43 -2 0
-38 16 -80 35 l-76 34 26 51 c102 202 353 293 605 220z m-1050 -700 l0 -700
-85 0 -85 0 0 560 0 560 -115 0 -115 0 0 60 0 60 40 0 c90 0 186 53 217 121
l18 38 63 1 62 0 0 -700z m2490 620 l0 -80 -294 0 -294 0 -6 -27 c-11 -59 -49
-374 -45 -378 2 -2 37 13 77 33 68 33 81 36 185 40 96 4 121 1 176 -18 370
-125 398 -659 45 -847 -94 -50 -178 -66 -314 -60 -155 7 -278 48 -374 125
l-29 22 27 38 c14 20 36 50 49 66 l23 29 68 -41 c104 -63 154 -77 276 -77 94
0 111 3 162 28 72 35 141 111 164 179 22 68 16 187 -14 244 -24 47 -90 110
-136 129 -108 46 -302 12 -370 -64 -24 -27 -32 -26 -122 5 -66 24 -74 29 -74
53 0 31 70 651 75 669 3 9 87 12 375 12 l370 0 0 -80z"/>
<path d="M71 3454 c0 -11 3 -14 6 -6 3 7 2 16 -1 19 -3 4 -6 -2 -5 -13z"/>
<path d="M4521 3460 c0 -8 6 -37 13 -65 8 -27 15 -43 15 -35 0 8 -6 38 -13 65
-8 28 -15 43 -15 35z"/>
<path d="M55 3390 c-4 -23 -5 -43 -2 -46 2 -3 7 14 11 37 4 23 5 44 2 46 -2 2
-7 -14 -11 -37z"/>
<path d="M4552 3310 c0 -14 5 -59 13 -100 7 -41 13 -61 13 -45 1 17 -5 62 -12
100 -8 39 -14 59 -14 45z"/>
<path d="M32 3253 c-7 -40 -12 -82 -11 -95 1 -13 7 15 15 61 8 47 13 90 11 95
-2 6 -9 -22 -15 -61z"/>
<path d="M0 3066 c0 -25 5 -48 10 -51 6 -4 10 13 10 44 0 28 -4 51 -10 51 -5
0 -10 -20 -10 -44z"/>
<path d="M4580 3060 c0 -27 5 -50 10 -50 6 0 10 23 10 50 0 28 -4 50 -10 50
-5 0 -10 -22 -10 -50z"/>
<path d="M0 2570 c0 -27 5 -50 10 -50 6 0 10 23 10 50 0 28 -4 50 -10 50 -5 0
-10 -22 -10 -50z"/>
<path d="M4580 2571 c0 -28 5 -53 10 -56 6 -4 10 15 10 49 0 31 -4 56 -10 56
-5 0 -10 -22 -10 -49z"/>
<path d="M4562 2409 c-7 -50 -11 -94 -8 -96 6 -6 29 162 25 176 -3 7 -10 -29
-17 -80z"/>
<path d="M22 2465 c-1 -16 5 -61 12 -100 8 -38 14 -59 14 -45 0 14 -5 59 -13
100 -7 41 -13 62 -13 45z"/>
<path d="M52 2270 c0 -14 2 -19 5 -12 2 6 2 18 0 25 -3 6 -5 1 -5 -13z"/>
<path d="M4542 2270 c0 -14 2 -19 5 -12 2 6 2 18 0 25 -3 6 -5 1 -5 -13z"/>
<path d="M62 2225 c0 -11 4 -31 8 -45 6 -20 8 -21 8 -5 0 11 -4 31 -8 45 -6
20 -8 21 -8 5z"/>
<path d="M4526 2204 c-4 -20 -5 -38 -3 -40 3 -3 8 11 11 32 4 20 5 38 3 40 -3
3 -8 -11 -11 -32z"/>
<path d="M82 2135 c0 -11 3 -29 8 -40 11 -25 11 1 0 35 -6 20 -8 21 -8 5z"/>
<path d="M4511 2134 c0 -11 3 -14 6 -6 3 7 2 16 -1 19 -3 4 -6 -2 -5 -13z"/>
<path d="M4481 2028 c-30 -108 -34 -129 -21 -98 16 37 52 171 47 176 -2 2 -14
-33 -26 -78z"/>
<path d="M101 2054 c0 -11 3 -14 6 -6 3 7 2 16 -1 19 -3 4 -6 -2 -5 -13z"/>
<path d="M121 1990 c0 -8 4 -24 9 -35 5 -13 9 -14 9 -5 0 8 -4 24 -9 35 -5 13
-9 14 -9 5z"/>
<path d="M146 1910 c4 -14 13 -38 20 -55 11 -24 13 -25 8 -5 -4 14 -13 39 -20
55 -11 24 -13 25 -8 5z"/>
<path d="M4431 1869 c-6 -18 -9 -34 -7 -36 2 -2 9 10 15 28 6 18 9 34 7 36 -2
2 -9 -10 -15 -28z"/>
<path d="M190 1785 c0 -5 5 -17 10 -25 5 -8 10 -10 10 -5 0 6 -5 17 -10 25 -5
8 -10 11 -10 5z"/>
<path d="M4396 1775 c-9 -26 -7 -32 5 -12 6 10 9 21 6 23 -2 3 -7 -2 -11 -11z"/>
<path d="M210 1735 c0 -5 5 -17 10 -25 5 -8 10 -10 10 -5 0 6 -5 17 -10 25 -5
8 -10 11 -10 5z"/>
<path d="M4372 1715 c-17 -37 -14 -45 4 -12 9 16 14 31 11 33 -2 2 -9 -7 -15
-21z"/>
<path d="M231 1685 c0 -5 8 -26 19 -45 11 -19 19 -30 19 -25 0 6 -8 26 -19 45
-11 19 -19 31 -19 25z"/>
<path d="M4342 1645 c-17 -37 -14 -45 4 -12 9 16 14 31 11 33 -2 2 -9 -7 -15
-21z"/>
<path d="M280 1571 c0 -6 4 -13 10 -16 6 -3 7 1 4 9 -7 18 -14 21 -14 7z"/>
<path d="M365 1410 c9 -16 18 -30 21 -30 2 0 -2 14 -11 30 -9 17 -18 30 -21
30 -2 0 2 -13 11 -30z"/>
<path d="M4230 1420 c-6 -11 -8 -20 -6 -20 3 0 10 9 16 20 6 11 8 20 6 20 -3
0 -10 -9 -16 -20z"/>
<path d="M505 1186 c10 -14 19 -26 22 -26 7 0 -17 39 -28 46 -6 3 -3 -5 6 -20z"/>
<path d="M4080 1180 c-12 -16 -19 -30 -16 -30 2 0 14 14 26 30 12 17 19 30 16
30 -2 0 -14 -13 -26 -30z"/>
<path d="M4039 1123 c-13 -16 -12 -17 4 -4 9 7 17 15 17 17 0 8 -8 3 -21 -13z"/>
<path d="M4009 1083 c-13 -16 -12 -17 4 -4 16 13 21 21 13 21 -2 0 -10 -8 -17
-17z"/>
<path d="M600 1056 c0 -2 8 -10 18 -17 15 -13 16 -12 3 4 -13 16 -21 21 -21
13z"/>
<path d="M3979 1043 c-13 -16 -12 -17 4 -4 9 7 17 15 17 17 0 8 -8 3 -21 -13z"/>
<path d="M645 1000 c10 -11 20 -20 23 -20 3 0 -3 9 -13 20 -10 11 -20 20 -23
20 -3 0 3 -9 13 -20z"/>
<path d="M3909 958 c-31 -35 -59 -70 -64 -78 -8 -15 46 44 99 108 49 57 21 34
-35 -30z"/>
<path d="M700 935 c19 -19 36 -35 39 -35 3 0 -10 16 -29 35 -19 19 -36 35 -39
35 -3 0 10 -16 29 -35z"/>
<path d="M835 790 c49 -49 92 -90 95 -90 2 0 -36 41 -85 90 -49 50 -92 90 -95
90 -2 0 36 -40 85 -90z"/>
<path d="M3750 785 c-41 -41 -72 -75 -69 -75 2 0 38 34 79 75 41 41 72 75 69
75 -2 0 -38 -34 -79 -75z"/>
<path d="M990 648 c31 -29 76 -68 100 -87 50 -37 26 -14 -85 81 -70 60 -70 60
-15 6z"/>
<path d="M3609 653 l-34 -38 38 34 c20 19 37 36 37 38 0 8 -8 0 -41 -34z"/>
<path d="M3549 603 c-13 -16 -12 -17 4 -4 16 13 21 21 13 21 -2 0 -10 -8 -17
-17z"/>
<path d="M3470 539 l-45 -41 42 32 c37 27 61 51 51 50 -2 0 -23 -19 -48 -41z"/>
<path d="M1140 527 c0 -3 17 -17 37 -33 20 -15 33 -23 29 -16 -8 13 -66 56
-66 49z"/>
<path d="M3337 446 c-73 -50 -110 -80 -77 -61 34 19 160 106 160 110 0 7 1 8
-83 -49z"/>
<path d="M1294 416 c27 -22 118 -77 105 -63 -3 4 -34 25 -70 47 -35 22 -51 30
-35 16z"/>
<path d="M3130 320 c-143 -80 -156 -91 -34 -29 87 45 161 90 144 88 -3 0 -52
-27 -110 -59z"/>
<path d="M1410 346 c0 -3 9 -10 20 -16 11 -6 20 -8 20 -6 0 3 -9 10 -20 16
-11 6 -20 8 -20 6z"/>
<path d="M1460 315 c0 -2 32 -21 70 -40 39 -19 70 -33 70 -30 0 2 -31 21 -70
40 -38 19 -70 33 -70 30z"/>
<path d="M1660 210 c30 -16 60 -29 65 -29 6 0 -15 13 -45 29 -30 16 -59 29
-65 29 -5 0 15 -13 45 -29z"/>
<path d="M2920 210 c-30 -16 -50 -29 -45 -29 6 0 35 13 65 29 30 16 51 29 45
29 -5 0 -35 -13 -65 -29z"/>
<path d="M1760 166 c14 -7 36 -16 50 -20 14 -3 7 3 -15 13 -45 22 -73 27 -35
7z"/>
<path d="M2830 170 c-8 -5 -10 -10 -5 -10 6 0 17 5 25 10 8 5 11 10 5 10 -5 0
-17 -5 -25 -10z"/>
<path d="M1850 130 c8 -5 20 -10 25 -10 6 0 3 5 -5 10 -8 5 -19 10 -25 10 -5
0 -3 -5 5 -10z"/>
<path d="M2730 130 c-8 -5 -10 -10 -5 -10 6 0 17 5 25 10 8 5 11 10 5 10 -5 0
-17 -5 -25 -10z"/>
<path d="M2645 100 c-13 -6 -15 -9 -5 -9 8 0 22 4 30 9 18 12 2 12 -25 0z"/>
<path d="M1960 90 c8 -5 22 -9 30 -9 10 0 8 3 -5 9 -27 12 -43 12 -25 0z"/>
<path d="M2040 65 c19 -7 42 -13 50 -13 8 0 -1 6 -20 13 -19 7 -42 13 -50 13
-8 0 1 -6 20 -13z"/>
<path d="M2530 65 c-19 -7 -28 -13 -20 -13 8 0 31 6 50 13 19 7 28 13 20 13
-8 0 -31 -6 -50 -13z"/>
<path d="M2145 35 c22 -8 49 -13 60 -13 11 0 -2 6 -30 14 -63 17 -84 16 -30
-1z"/>
<path d="M2420 35 c-25 -7 -36 -13 -25 -13 11 0 38 5 60 13 52 17 24 17 -35 0z"/>
<path d="M2230 10 c0 -5 9 -10 20 -10 11 0 20 5 20 10 0 6 -9 10 -20 10 -11 0
-20 -4 -20 -10z"/>
<path d="M2330 10 c0 -5 9 -10 20 -10 11 0 20 5 20 10 0 6 -9 10 -20 10 -11 0
-20 -4 -20 -10z"/>
</g>
</svg>
